<svg width="64" height="67" viewBox="0 0 64 67" fill="none" xmlns="http://www.w3.org/2000/svg">
<path fill-rule="evenodd" clip-rule="evenodd" d="M30.6776 0C43.2619 0 53.9735 9.16017 55.9267 21.5919L61.7861 58.8859C61.8947 59.5775 61.4221 60.2264 60.7305 60.3351C60.6653 60.3453 60.5996 60.3505 60.5336 60.3505H3.46617C2.76595 60.3505 2.1983 59.7829 2.1983 59.0826C2.1983 59.0353 2.20095 58.9882 2.20622 58.9412L6.3833 21.7204C7.7714 9.35149 18.2311 0 30.6776 0Z" fill="#A570FF"/>
<path fill-rule="evenodd" clip-rule="evenodd" d="M53.174 20.7031H55.0519C57.7127 20.7031 59.8698 22.8602 59.8698 25.521C59.8698 28.1819 57.7127 30.339 55.0519 30.339H53.174C50.513 30.339 48.356 28.1819 48.356 25.521C48.356 22.8602 50.513 20.7031 53.174 20.7031Z" fill="#FFC6B7"/>
<path d="M33.4849 3.80359C44.1213 3.80359 53.0613 11.7912 54.2545 22.3602L56.1885 39.49C56.828 45.1538 52.7549 50.2637 47.0911 50.9032C46.7067 50.9466 46.3202 50.9683 45.9333 50.9683H19.946C14.2462 50.9683 9.62555 46.3477 9.62555 40.6479C9.62555 40.157 9.66056 39.6668 9.73033 39.181L12.1561 22.2886C13.6794 11.6801 22.7677 3.80359 33.4849 3.80359Z" fill="#FFC6B7"/>
<path d="M45.4734 21.9437H39.8995C36.372 21.9437 33.5127 24.8032 33.5127 28.3305V32.7776C33.5127 34.4982 34.9076 35.8931 36.6282 35.8931H39.8995C43.4268 35.8931 46.2861 33.0336 46.2861 29.5063V22.7565C46.2861 22.3077 45.9222 21.9437 45.4734 21.9437Z" fill="white"/>
<path fill-rule="evenodd" clip-rule="evenodd" d="M38.5426 23.0275C36.959 23.0275 35.6752 24.3113 35.6752 25.8948V29.4962C35.6752 31.0798 36.959 32.3636 38.5426 32.3636C40.1262 32.3636 41.4098 31.0798 41.4098 29.4962V25.8948C41.4098 24.3113 40.1262 23.0275 38.5426 23.0275Z" fill="#3D3D3D"/>
<path d="M46.2861 29.5295H33.5127V28.3308C33.5127 24.8035 36.372 21.9442 39.8995 21.9442H45.4734C45.9222 21.9442 46.2861 22.308 46.2861 22.7569V29.5066C46.2861 29.5143 46.2861 29.5218 46.2861 29.5295Z" fill="#A570FF"/>
<path d="M19.9276 21.9437H25.5016C29.0289 21.9437 31.8883 24.8032 31.8883 28.3305V32.642C31.8883 34.4375 30.4329 35.8931 28.6373 35.8931H25.5016C21.9744 35.8931 19.1149 33.0336 19.1149 29.5063V22.7565C19.1149 22.3077 19.4787 21.9437 19.9276 21.9437Z" fill="white"/>
<path fill-rule="evenodd" clip-rule="evenodd" d="M26.8584 23.0275C28.442 23.0275 29.7258 24.3113 29.7258 25.8948V29.4962C29.7258 31.0798 28.442 32.3636 26.8584 32.3636C25.2749 32.3636 23.9911 31.0798 23.9911 29.4962V25.8948C23.9911 24.3113 25.2749 23.0275 26.8584 23.0275Z" fill="#3D3D3D"/>
<path d="M31.8883 29.5295V28.3308C31.8883 24.8035 29.0289 21.9442 25.5016 21.9442H19.9276C19.4787 21.9442 19.1149 22.308 19.1149 22.7569V29.5066C19.1149 29.5143 19.1149 29.5218 19.1149 29.5295H31.8883Z" fill="#A570FF"/>
<path fill-rule="evenodd" clip-rule="evenodd" d="M39.7039 41.178C39.024 41.646 38.2621 42.5935 37.454 44.1514C37.2411 44.5617 36.7361 44.7218 36.3259 44.5089C35.9155 44.2962 35.7555 43.7911 35.9684 43.3808C36.821 41.7371 37.7379 40.4996 38.755 39.7995C39.2749 39.4417 39.837 39.2132 40.4356 39.1605C41.0372 39.1074 41.6222 39.2366 42.1761 39.5133C42.5896 39.7197 42.7575 40.2224 42.5509 40.6358C42.3445 41.0493 41.842 41.217 41.4286 41.0106C41.1157 40.8544 40.8386 40.8051 40.5826 40.8276C40.3235 40.8504 40.0326 40.9519 39.7039 41.178Z" fill="#EE9583"/>
<path fill-rule="evenodd" clip-rule="evenodd" d="M32.5651 40.0951C33.9866 40.0951 35.1389 38.9494 35.1389 37.5362C35.1389 36.1228 32.5651 32.7804 32.5651 32.7804C32.5651 32.7804 29.9915 36.1228 29.9915 37.5362C29.9915 38.9494 31.1438 40.0951 32.5651 40.0951Z" fill="#EE9583"/>
<path d="M54.2413 20.7032H39.3029C30.9002 20.7032 24.0886 13.8914 24.0886 5.48869V4.41747C26.9402 3.03386 30.1331 2.26318 33.4852 2.26318C44.0823 2.26318 52.9957 10.1921 54.2413 20.7032Z" fill="#A570FF"/>
<path fill-rule="evenodd" clip-rule="evenodd" d="M15.2567 7.54348L15.2785 7.52207L22.6073 4.47679C23.3832 4.15438 24.2737 4.52193 24.5961 5.298C24.673 5.483 24.7126 5.68141 24.7126 5.88182V52.2361C24.7126 52.9364 24.145 53.5039 23.4447 53.5039H9.0522C8.21194 53.5039 7.53076 52.8229 7.53076 51.9826V25.7677C7.53076 18.8972 10.3187 12.3207 15.2567 7.54348Z" fill="#A570FF"/>
<path fill-rule="evenodd" clip-rule="evenodd" d="M26.7403 51.067H37.1704C37.6193 51.067 37.9832 51.4309 37.9832 51.8797V59.5016C37.9832 59.9505 37.6193 60.3144 37.1704 60.3144H26.7403C26.2915 60.3144 25.9276 59.9505 25.9276 59.5016V51.8797C25.9276 51.4309 26.2915 51.067 26.7403 51.067Z" fill="#593F86"/>
</svg>
