<svg width="64" height="67" viewBox="0 0 64 67" fill="none" xmlns="http://www.w3.org/2000/svg">
<g clip-path="url(#clip0_1934_21454)">
<path d="M32.0644 16.9102C36.7611 16.9102 40.5685 13.1247 40.5685 8.45502C40.5685 3.78546 36.7611 0 32.0644 0C27.3677 0 23.5603 3.78546 23.5603 8.45502C23.5603 13.1247 27.3677 16.9102 32.0644 16.9102Z" fill="#3D3D3D"/>
<mask id="mask0_1934_21454" style="mask-type:alpha" maskUnits="userSpaceOnUse" x="4" y="18" width="56" height="37">
<path d="M21.868 18.9626H42.132C51.8326 18.9626 59.6951 26.8251 59.6951 36.5256C59.6951 46.2248 51.8326 54.0887 42.132 54.0887H21.868C12.1673 54.0887 4.3049 46.2248 4.3049 36.5256C4.3049 26.8251 12.1673 18.9626 21.868 18.9626Z" fill="white"/>
</mask>
<g mask="url(#mask0_1934_21454)">
<path d="M21.868 18.9626H42.132C51.8326 18.9626 59.6951 26.8251 59.6951 36.5256C59.6951 46.2248 51.8326 54.0887 42.132 54.0887H21.868C12.1673 54.0887 4.3049 46.2248 4.3049 36.5256C4.3049 26.8251 12.1673 18.9626 21.868 18.9626Z" fill="#3D3D3D"/>
<path fill-rule="evenodd" clip-rule="evenodd" d="M-8.81824 38.7448H71.6612V54.474H-8.81824V38.7448Z" fill="#9F9F9F"/>
</g>
<path fill-rule="evenodd" clip-rule="evenodd" d="M32.2116 25.7072C44.2225 25.7072 53.9594 35.4441 53.9594 47.4549V58.3401C53.9594 61.3178 51.5454 63.7319 48.5676 63.7319H15.8542C12.8763 63.7319 10.4623 61.3178 10.4623 58.3401V47.4549C10.4623 35.4441 20.1993 25.7072 32.2116 25.7072Z" fill="#FFCBA3"/>
<path fill-rule="evenodd" clip-rule="evenodd" d="M17.2067 24.1437H48.9745V29.3245H17.2067V24.1437Z" fill="#3D3D3D"/>
<path fill-rule="evenodd" clip-rule="evenodd" d="M27.1174 34.3079C27.7131 34.3079 28.3029 34.4253 28.8533 34.6532C29.4035 34.8813 29.9036 35.2154 30.3247 35.6367C30.7458 36.0579 31.0798 36.558 31.3077 37.1084C31.5355 37.6587 31.6527 38.2486 31.6525 38.8444V41.6436C31.6525 42.8463 31.1747 43.9998 30.3242 44.8504C29.4738 45.7008 28.3202 46.1786 27.1174 46.1786C25.9146 46.1786 24.7612 45.7008 23.9106 44.8504C23.0602 43.9998 22.5823 42.8463 22.5823 41.6436V38.8429C22.5823 37.6401 23.0602 36.4867 23.9106 35.6361C24.7612 34.7857 25.9146 34.3079 27.1174 34.3079Z" fill="white"/>
<path fill-rule="evenodd" clip-rule="evenodd" d="M28.3573 36.9657C29.4851 36.9657 30.4 37.8791 30.4 39.0084V41.5722C30.4 42.1139 30.1847 42.6334 29.8016 43.0165C29.4186 43.3996 28.899 43.6149 28.3573 43.6149C27.8155 43.6149 27.296 43.3996 26.9129 43.0165C26.5298 42.6334 26.3146 42.1139 26.3146 41.5722V39.0084C26.3146 37.8791 27.2294 36.9657 28.3573 36.9657Z" fill="#3D3D3D"/>
<path d="M26.5556 38.8962C27.3819 38.8962 28.0518 38.2263 28.0518 37.4C28.0518 36.5736 27.3819 35.9036 26.5556 35.9036C25.7292 35.9036 25.0594 36.5736 25.0594 37.4C25.0594 38.2263 25.7292 38.8962 26.5556 38.8962Z" fill="white"/>
<path fill-rule="evenodd" clip-rule="evenodd" d="M37.8577 34.3079C37.262 34.3079 36.6722 34.4253 36.1218 34.6532C35.5716 34.8813 35.0715 35.2154 34.6504 35.6367C34.2293 36.0579 33.8952 36.558 33.6674 37.1084C33.4395 37.6587 33.3224 38.2486 33.3226 38.8444V41.6436C33.3226 42.8463 33.8003 43.9998 34.6509 44.8504C35.5013 45.7008 36.6549 46.1786 37.8577 46.1786C39.0605 46.1786 40.2139 45.7008 41.0645 44.8504C41.9149 43.9998 42.3928 42.8463 42.3928 41.6436V38.8429C42.3928 37.6404 41.915 36.4871 41.0649 35.6367C40.2147 34.7863 39.0602 34.3083 37.8577 34.3079Z" fill="white"/>
<path fill-rule="evenodd" clip-rule="evenodd" d="M36.8462 36.9657C35.7183 36.9657 34.8035 37.8791 34.8035 39.0084V41.5722C34.8035 42.1139 35.0187 42.6334 35.4018 43.0165C35.7849 43.3996 36.3044 43.6149 36.8462 43.6149C37.3879 43.6149 37.9075 43.3996 38.2906 43.0165C38.6736 42.6334 38.8888 42.1139 38.8888 41.5722V39.0084C38.8888 37.8791 37.974 36.9657 36.8462 36.9657Z" fill="#3D3D3D"/>
<path d="M35.3665 38.8962C34.5402 38.8962 33.8703 38.2263 33.8703 37.4C33.8703 36.5736 34.5402 35.9036 35.3665 35.9036C36.193 35.9036 36.8628 36.5736 36.8628 37.4C36.8628 38.2263 36.193 38.8962 35.3665 38.8962Z" fill="white"/>
<path fill-rule="evenodd" clip-rule="evenodd" d="M21.9156 43.4971C27.018 43.8516 30.5317 44.6221 32.4539 45.8073C34.3774 46.9926 32.7578 50.4265 27.5938 56.1048L18.9664 48.6991L21.9169 43.4971H21.9156Z" fill="#FFCBA3"/>
<path fill-rule="evenodd" clip-rule="evenodd" d="M43.7767 43.7899C38.6757 44.1443 35.162 44.9149 33.2384 46.1015C31.3148 47.2868 32.9343 50.7192 38.1 56.399L46.7259 48.9932L43.7767 43.7899Z" fill="#FFCBA3"/>
<path fill-rule="evenodd" clip-rule="evenodd" d="M32.5044 47.8948C33.719 47.8948 34.704 46.9002 34.704 45.6729C34.704 44.4456 32.5044 41.5413 32.5044 41.5413C32.5044 41.5413 30.3048 44.4456 30.3048 45.6729C30.3048 46.9002 31.2898 47.8948 32.5044 47.8948Z" fill="#E89665"/>
<path fill-rule="evenodd" clip-rule="evenodd" d="M25.413 47.1606C25.6715 46.9504 26.0514 46.9896 26.2615 47.2481C27.7471 49.0755 29.3377 50.0905 31.026 50.3882C32.7167 50.6864 34.602 50.2823 36.7084 49.0815C36.9978 48.9165 37.3662 49.0174 37.5312 49.3068C37.6961 49.5962 37.5953 49.9646 37.3059 50.1296C35.0356 51.4238 32.8636 51.9373 30.8164 51.5763C28.7668 51.2149 26.9389 49.9939 25.3254 48.0091C25.1153 47.7506 25.1545 47.3707 25.413 47.1606Z" fill="#E89665"/>
<path fill-rule="evenodd" clip-rule="evenodd" d="M28.154 55.6596C28.2922 55.4436 28.5794 55.3806 28.7954 55.5188C29.9573 56.2626 31.0937 56.6193 32.2113 56.6193C33.3289 56.6193 34.4649 56.2626 35.626 55.5189C35.8419 55.3806 36.1292 55.4435 36.2675 55.6595C36.4058 55.8754 36.3429 56.1626 36.1269 56.301C34.8447 57.1222 33.5374 57.548 32.2113 57.548C30.8852 57.548 29.5776 57.1222 28.2947 56.301C28.0787 56.1628 28.0157 55.8756 28.154 55.6596Z" fill="#F7B286"/>
<path fill-rule="evenodd" clip-rule="evenodd" d="M20.921 41.3464H32.0141C33.7779 41.3464 32.9653 36.2889 30.1592 34.5936C28.0058 33.2907 23.9246 35.0518 23.5043 35.0518C22.8627 35.0518 22.0011 37.149 20.9223 41.3464H20.921Z" fill="#FFCBA3"/>
<path fill-rule="evenodd" clip-rule="evenodd" d="M31.2827 41.3465H42.3744C44.1397 41.3465 43.327 36.4851 40.5209 34.7884C38.3662 33.4855 34.2864 35.2466 33.866 35.2466C33.223 35.2466 32.3628 37.2794 31.2827 41.3465Z" fill="#FFCBA3"/>
<path opacity="0.626" fill-rule="evenodd" clip-rule="evenodd" d="M47.4488 39.8972C47.5474 40.1339 47.4354 40.4058 47.1986 40.5044L44.6751 41.5552L47.2088 42.6819C47.4431 42.7861 47.5486 43.0605 47.4444 43.2948C47.3402 43.5292 47.0658 43.6347 46.8314 43.5305L43.3121 41.9655C43.1426 41.8901 43.0342 41.7211 43.0364 41.5357C43.0386 41.3502 43.151 41.1838 43.3222 41.1125L46.8416 39.647C47.0784 39.5484 47.3502 39.6604 47.4488 39.8972ZM16.7794 39.8971C16.878 39.6604 17.1499 39.5484 17.3866 39.647L20.9047 41.1125C21.0759 41.1839 21.1882 41.3502 21.1904 41.5357C21.1926 41.7212 21.0843 41.8901 20.9148 41.9655L17.3954 43.5305C17.1611 43.6347 16.8866 43.5292 16.7824 43.2948C16.6782 43.0605 16.7837 42.7861 17.0181 42.6819L19.5519 41.5551L17.0295 40.5044C16.7928 40.4057 16.6808 40.1339 16.7794 39.8971Z" fill="#F3A577"/>
<path fill-rule="evenodd" clip-rule="evenodd" d="M11.4304 25.3162H15.7511C16.9669 25.3162 18.1329 25.7992 18.9925 26.6589C19.8522 27.5185 20.3352 28.6845 20.3352 29.9004V34.2211C20.3352 35.4368 19.8522 36.6028 18.9925 37.4625C18.1329 38.3221 16.9669 38.8051 15.7511 38.8051H11.4304C10.2146 38.8051 9.04864 38.3221 8.18896 37.4625C7.32927 36.6028 6.84631 35.4368 6.84631 34.2211V29.9004C6.84631 28.6845 7.32927 27.5185 8.18896 26.6589C9.04864 25.7992 10.2146 25.3162 11.4304 25.3162ZM48.6706 24.8273H52.4056C53.6215 24.8273 54.7875 25.3103 55.6471 26.1699C56.5068 27.0296 56.9898 28.1956 56.9898 29.4115V34.2211C56.9898 35.4368 56.5068 36.6028 55.6471 37.4625C54.7875 38.3221 53.6215 38.8051 52.4056 38.8051H48.6706C47.455 38.8048 46.2894 38.3216 45.43 37.462C44.5706 36.6024 44.0879 35.4365 44.0879 34.2211V29.4115C44.0879 28.1959 44.5706 27.03 45.43 26.1704C46.2894 25.3108 47.455 24.8277 48.6706 24.8273Z" fill="#3D3D3D"/>
<path fill-rule="evenodd" clip-rule="evenodd" d="M38.096 35.4597C34.6238 34.3761 30.9612 34.3654 27.0745 35.47C26.3251 35.683 25.5449 35.2481 25.3319 34.4987C25.119 33.7493 25.5538 32.9691 26.3032 32.7562C30.6684 31.5156 34.8935 31.5048 38.9364 32.7665C39.6801 32.9986 40.0949 33.7896 39.8628 34.5333C39.6307 35.277 38.8397 35.6917 38.096 35.4597Z" fill="#3D3D3D"/>
</g>
<defs>
<clipPath id="clip0_1934_21454">
<rect width="64" height="66.3703" fill="white"/>
</clipPath>
</defs>
</svg>
