<svg width="35" height="34" viewBox="0 0 35 34" fill="none" xmlns="http://www.w3.org/2000/svg">
<path fill-rule="evenodd" clip-rule="evenodd" d="M11 5.5C11 3.567 12.567 2 14.5 2H20.5C22.433 2 24 3.567 24 5.5V6.54148C24 7.02991 24.3528 7.44688 24.8345 7.5277C25.7797 7.68626 26.5 8.50999 26.5 9.5C26.5 10.49 25.7797 11.3137 24.8345 11.4723C24.3528 11.5531 24 11.9701 24 12.4585V12.5C24 14.433 22.433 16 20.5 16H14.5C12.567 16 11 14.433 11 12.5V12.4585C11 11.9701 10.6472 11.5531 10.1655 11.4723C9.22031 11.3137 8.5 10.49 8.5 9.5C8.5 8.50999 9.22031 7.68626 10.1655 7.5277C10.6472 7.44688 11 7.02991 11 6.54148V5.5ZM14.5 0C11.4624 0 9 2.46243 9 5.5V5.79106C7.53399 6.38453 6.5 7.82081 6.5 9.5C6.5 11.1974 7.55649 12.6465 9.04774 13.2279C9.20727 14.4344 9.75787 15.5175 10.568 16.3457L1.32788 26.5303C-0.565814 28.6175 -0.0491433 31.9201 2.39156 33.3292C4.19379 34.3697 6.47768 34.0124 7.87599 32.4712L10 30.13V31.0003C10 32.6572 11.3432 34.0003 13 34.0003H22C23.6569 34.0003 25 32.6572 25 31.0003V30.13L27.124 32.4712C28.5223 34.0124 30.8062 34.3697 32.6085 33.3292C35.0492 31.9201 35.5658 28.6175 33.6721 26.5303L24.432 16.3457C25.2421 15.5175 25.7927 14.4344 25.9523 13.2279C27.4435 12.6465 28.5 11.1974 28.5 9.5C28.5 7.82081 27.466 6.38453 26 5.79106V5.5C26 2.46243 23.5376 0 20.5 0H14.5ZM22.7834 17.5051C22.0879 17.8229 21.3146 18 20.5 18H14.5C13.6854 18 12.9121 17.8229 12.2166 17.5051L2.8091 27.8741C1.77214 29.0171 2.05507 30.8255 3.39156 31.5971C4.37844 32.1669 5.62907 31.9713 6.39477 31.1273L10 27.1536V25C10 24.4477 10.4477 24 11 24C11.5357 24 11.973 24.4212 11.9988 24.9505L12 24.9491V31.0003C12 31.5526 12.4477 32.0003 13 32.0003H22C22.5523 32.0003 23 31.5526 23 31.0003V29.5052L23 29.5V25L23 24.9948V24.9491L23.0012 24.9504C23.027 24.4212 23.4643 24 24 24C24.5523 24 25 24.4477 25 25V27.1535L28.6053 31.1273C29.371 31.9713 30.6216 32.1669 31.6085 31.5971C32.945 30.8255 33.2279 29.0171 32.1909 27.8741L22.7834 17.5051Z" fill="#52656D"/>
</svg>
