<svg width="24" height="24" viewBox="0 0 24 24" fill="none" xmlns="http://www.w3.org/2000/svg"><path fill-rule="evenodd" clip-rule="evenodd" d="M1.43515 11.466L9.50695 20.9996C9.62592 21.1401 9.75665 21.2703 9.89773 21.3888C11.2746 22.5451 13.332 22.3709 14.4931 20.9996L22.5649 11.466C22.8955 11.0754 23.0769 10.581 23.0769 10.0701C23.0769 8.87426 22.1035 7.90481 20.9028 7.90481L17.9752 7.90481L17.9752 4.01142C17.9752 2.81556 17.0018 1.84611 15.8011 1.84611L8.19886 1.84611C6.99816 1.84611 6.02479 2.81555 6.02479 4.01142L6.02479 7.90481L3.09718 7.90481C2.58424 7.90481 2.08781 8.08545 1.69567 8.41479C0.777751 9.1857 0.661115 10.5518 1.43515 11.466Z" fill="#FF4B4B"/></svg>