<svg width="26" height="16" viewBox="0 0 26 16" fill="none" xmlns="http://www.w3.org/2000/svg"><path fill-rule="evenodd" clip-rule="evenodd" d="M6.39997 8.53334C8.75639 8.53334 10.6666 6.62309 10.6666 4.26667C10.6666 1.91025 8.75639 0 6.39997 0C4.04355 0 2.1333 1.91025 2.1333 4.26667C2.1333 6.62309 4.04355 8.53334 6.39997 8.53334ZM4.44445 10.6664C1.98985 10.6664 0 12.6562 0 15.1108C0 15.6017 0.397969 15.9997 0.88889 15.9997H11.9111C12.402 15.9997 12.8 15.6017 12.8 15.1108C12.8 12.6562 10.8102 10.6664 8.35557 10.6664H4.44445Z" fill="#58CC02"/><path fill-rule="evenodd" clip-rule="evenodd" d="M25.1856 3.73491C25.6195 4.16883 25.6195 4.87235 25.1856 5.30626L19.5287 10.9631C19.0948 11.397 18.3913 11.397 17.9574 10.9631L15.3352 8.34114C14.9013 7.90724 14.9013 7.20372 15.3352 6.76979C15.7691 6.33586 16.4726 6.33584 16.9065 6.76974L18.743 8.60612L23.6142 3.73491C24.0482 3.301 24.7517 3.301 25.1856 3.73491Z" fill="#58CC02"/></svg>